<svg width="526" height="526" viewBox="0 0 526 526" fill="none" xmlns="http://www.w3.org/2000/svg">
<circle cx="263" cy="263" r="263" fill="url(#paint0_linear_240_37)"/>
<path d="M366.621 252.662C346.016 252.662 328.145 248.268 313.008 239.479C297.969 230.689 286.348 218.141 278.145 201.832C270.039 185.426 265.986 165.895 265.986 143.238V143.092C265.986 120.338 270.088 100.855 278.291 84.6445C286.494 68.3359 298.115 55.8359 313.154 47.1445C328.193 38.3555 346.016 33.9609 366.621 33.9609C383.711 33.9609 398.945 37.2812 412.324 43.9219C425.703 50.5625 436.445 59.6934 444.551 71.3145C452.656 82.8379 457.393 96.1191 458.76 111.158L458.906 112.477H415.84L415.254 109.986C413.594 102.174 410.615 95.3867 406.318 89.625C402.021 83.8633 396.504 79.4199 389.766 76.2949C383.125 73.0723 375.41 71.4609 366.621 71.4609C355.293 71.4609 345.479 74.3418 337.178 80.1035C328.877 85.8652 322.432 94.1172 317.842 104.859C313.35 115.504 311.104 128.199 311.104 142.945V143.092C311.104 157.936 313.35 170.777 317.842 181.617C322.432 192.359 328.877 200.66 337.178 206.52C345.576 212.281 355.391 215.162 366.621 215.162C375.117 215.162 382.686 213.6 389.326 210.475C396.064 207.35 401.68 202.857 406.172 196.998C410.664 191.041 413.838 183.863 415.693 175.465L415.986 174H459.053L458.906 175.611C457.539 190.553 452.754 203.834 444.551 215.455C436.445 227.076 425.703 236.207 412.324 242.848C398.945 249.391 383.711 252.662 366.621 252.662Z" fill="white"/>
<defs>
<linearGradient id="paint0_linear_240_37" x1="89.2936" y1="263.176" x2="467.654" y2="263.176" gradientUnits="userSpaceOnUse">
<stop stop-color="#06B6D4"/>
<stop offset="1" stop-color="#3B82F6"/>
<stop offset="1" stop-color="#3B82F6"/>
</linearGradient>
</defs>
</svg>
